<svg width="24" height="24" viewBox="0 0 24 24" fill="none" xmlns="http://www.w3.org/2000/svg">
<g clip-path="url(#clip0_24_1232)">
<path d="M23.364 2.00179V21.9274C23.364 22.383 23.1831 22.8199 22.8609 23.142C22.5388 23.4642 22.1019 23.6452 21.6463 23.6452H1.72066C1.26509 23.6452 0.828178 23.4642 0.50604 23.142C0.183904 22.8199 0.00292969 22.383 0.00292969 21.9274V2.00179C0.00292969 1.54622 0.183904 1.10931 0.50604 0.787168C0.828178 0.465032 1.26509 0.284058 1.72066 0.284058H21.6463C22.1019 0.284058 22.5388 0.465032 22.8609 0.787168C23.1831 1.10931 23.364 1.54622 23.364 2.00179ZM6.87384 9.21625H3.43839V20.2097H6.87384V9.21625ZM7.18304 5.43725C7.18485 5.17738 7.13546 4.9197 7.03768 4.67893C6.9399 4.43815 6.79566 4.21899 6.61318 4.03396C6.43071 3.84893 6.21357 3.70166 5.97418 3.60056C5.73478 3.49944 5.47782 3.44648 5.21796 3.44468H5.15612C4.62765 3.44468 4.12084 3.65461 3.74716 4.02829C3.37348 4.40197 3.16355 4.90878 3.16355 5.43725C3.16355 5.9657 3.37348 6.47252 3.74716 6.8462C4.12084 7.21987 4.62765 7.42981 5.15612 7.42981C5.416 7.4362 5.6746 7.39133 5.91713 7.29774C6.15966 7.20416 6.38138 7.0637 6.56961 6.88441C6.75784 6.70511 6.9089 6.49048 7.01415 6.25278C7.11941 6.01508 7.1768 5.75897 7.18304 5.49908V5.43725ZM19.9286 13.5312C19.9286 10.2263 17.8261 8.94141 15.7373 8.94141C15.0534 8.90717 14.3724 9.05284 13.7624 9.36388C13.1524 9.67492 12.6346 10.1405 12.2606 10.7141H12.1644V9.21625H8.93512V20.2097H12.3706V14.3625C12.321 13.7637 12.5096 13.1695 12.8955 12.7089C13.2815 12.2484 13.8336 11.9587 14.4318 11.9028H14.5624C15.6549 11.9028 16.4656 12.5899 16.4656 14.3214V20.2097H19.9011L19.9286 13.5312Z" fill="white"/>
</g>
<defs>
<clipPath id="clip0_24_1232">
<rect width="23.3611" height="23.3611" fill="white" transform="translate(0.00292969 0.284058)"/>
</clipPath>
</defs>
</svg>
