<svg width="25" height="24" viewBox="0 0 25 24" fill="none" xmlns="http://www.w3.org/2000/svg">
<g clip-path="url(#clip0_24_1242)">
<path d="M24.1697 11.9883C24.1697 5.53736 18.9401 0.3078 12.4891 0.3078C6.03815 0.3078 0.808594 5.53736 0.808594 11.9883C0.808594 17.8185 5.08001 22.6507 10.6641 23.527V15.3648H7.6983V11.9883H10.6641V9.41499C10.6641 6.48755 12.4079 4.87052 15.076 4.87052C16.354 4.87052 17.6907 5.09865 17.6907 5.09865V7.97317H16.2178C14.7668 7.97317 14.3142 8.87355 14.3142 9.79727V11.9883H17.5537L17.0359 15.3648H14.3142V23.527C19.8983 22.6507 24.1697 17.8185 24.1697 11.9883Z" fill="white"/>
</g>
<defs>
<clipPath id="clip0_24_1242">
<rect width="23.3611" height="23.3611" fill="white" transform="translate(0.808594 0.284119)"/>
</clipPath>
</defs>
</svg>
