<svg width="28" height="28" viewBox="0 0 28 28" fill="none" xmlns="http://www.w3.org/2000/svg">
<g clip-path="url(#clip0_24_1122)">
<path d="M24.8408 23.324C24.8408 25.4442 23.1219 27.1629 21.0017 27.1629H14.6601H8.75705C6.50114 27.1629 4.67236 25.3342 4.67236 23.0782C4.67236 20.5862 6.69254 18.566 9.18456 18.566H20.0829C22.7106 18.566 24.8408 20.6963 24.8408 23.324Z" fill="#BABFE9"/>
<path d="M0.830566 18.1364V7.46156C0.830566 3.50495 4.03803 0.297485 7.99464 0.297485H20.5318C24.4884 0.297485 27.6958 3.50495 27.6958 7.46156V11.0715V18.1364C27.6958 22.093 24.4884 25.3005 20.5318 25.3005H7.99464C4.03803 25.3005 0.830566 22.093 0.830566 18.1364Z" fill="url(#paint0_radial_24_1122)" fill-opacity="0.4"/>
<path d="M1.09229 18.1364V7.46156C1.09229 3.64943 4.18263 0.559082 7.99477 0.559082H20.5319C24.344 0.559082 27.4344 3.64943 27.4344 7.46156V11.0715V18.1364C27.4344 21.9485 24.344 25.0389 20.5319 25.0389H7.99477C4.18263 25.0389 1.09229 21.9485 1.09229 18.1364Z" stroke="url(#paint1_linear_24_1122)" stroke-width="0.523184" stroke-miterlimit="10" stroke-linecap="round" stroke-linejoin="round"/>
<path d="M6.20361 11.0435H17.2207" stroke="white" stroke-width="0.895509" stroke-miterlimit="10" stroke-linecap="round" stroke-linejoin="round"/>
<path d="M6.20361 15.5211H21.5833" stroke="white" stroke-width="0.895509" stroke-miterlimit="10" stroke-linecap="round" stroke-linejoin="round"/>
</g>
<defs>
<radialGradient id="paint0_radial_24_1122" cx="0" cy="0" r="1" gradientUnits="userSpaceOnUse" gradientTransform="translate(7.54358 11.1381) rotate(-16.7274) scale(31.3889 57.3133)">
<stop stop-color="#3347FF"/>
<stop offset="0.749777" stop-color="#DFE2FF" stop-opacity="0.54725"/>
<stop offset="1" stop-color="#6B7AFF"/>
</radialGradient>
<linearGradient id="paint1_linear_24_1122" x1="3.02703" y1="9.39443" x2="12.0615" y2="26.4657" gradientUnits="userSpaceOnUse">
<stop stop-color="white" stop-opacity="0.64"/>
<stop offset="1" stop-color="white" stop-opacity="0.24"/>
</linearGradient>
<clipPath id="clip0_24_1122">
<rect width="26.8653" height="26.8653" fill="white" transform="translate(0.830566 0.297485)"/>
</clipPath>
</defs>
</svg>
