<svg width="20" height="19" viewBox="0 0 20 19" fill="none" xmlns="http://www.w3.org/2000/svg">
<path d="M2.42773 10.4362C2.42773 9.89608 2.86607 9.45774 3.40616 9.45774H5.363C5.90309 9.45774 6.34142 9.89608 6.34142 10.4362V16.3067C6.34142 16.8468 5.90309 17.2851 5.363 17.2851H3.40616C3.14666 17.2851 2.8978 17.182 2.71431 16.9985C2.53082 16.8151 2.42773 16.5662 2.42773 16.3067V10.4362ZM8.29826 6.52248C8.29826 5.98239 8.7366 5.54406 9.27669 5.54406H11.2335C11.7736 5.54406 12.212 5.98239 12.212 6.52248V16.3067C12.212 16.8468 11.7736 17.2851 11.2335 17.2851H9.27669C9.01719 17.2851 8.76833 17.182 8.58484 16.9985C8.40135 16.8151 8.29826 16.5662 8.29826 16.3067V6.52248ZM14.1688 2.60879C14.1688 2.0687 14.6071 1.63037 15.1472 1.63037H17.1041C17.6441 1.63037 18.0825 2.0687 18.0825 2.60879V16.3067C18.0825 16.8468 17.6441 17.2851 17.1041 17.2851H15.1472C14.8877 17.2851 14.6389 17.182 14.4554 16.9985C14.2719 16.8151 14.1688 16.5662 14.1688 16.3067V2.60879Z" stroke="white" stroke-opacity="0.6" stroke-width="1.13155" stroke-linecap="round" stroke-linejoin="round"/>
</svg>
