<svg width="22" height="22" viewBox="0 0 22 22" fill="none" xmlns="http://www.w3.org/2000/svg">
<path d="M16.2794 16.8513C15.6841 16.0632 14.914 15.4241 14.0296 14.9843C13.1453 14.5445 12.1709 14.316 11.1832 14.3169C10.1956 14.316 9.22119 14.5445 8.33685 14.9843C7.45251 15.4241 6.68238 16.0632 6.08711 16.8513M16.2794 16.8513C17.4409 15.8181 18.2601 14.4562 18.6299 12.9463C18.9997 11.4363 18.9018 9.84958 18.349 8.39655C17.7963 6.94353 16.815 5.69285 15.5351 4.81037C14.2553 3.9279 12.7374 3.45532 11.1828 3.45532C9.62821 3.45532 8.11034 3.9279 6.83049 4.81037C5.55065 5.69285 4.56929 6.94353 4.01658 8.39655C3.46386 9.84958 3.3659 11.4363 3.73569 12.9463C4.10548 14.4562 4.92554 15.8181 6.08711 16.8513M16.2794 16.8513C14.8771 18.1021 13.0622 18.7921 11.1832 18.7894C9.30395 18.7923 7.48956 18.1023 6.08711 16.8513M13.739 9.20546C13.739 9.88328 13.4697 10.5333 12.9904 11.0126C12.5111 11.4919 11.8611 11.7612 11.1832 11.7612C10.5054 11.7612 9.85535 11.4919 9.37606 11.0126C8.89677 10.5333 8.62751 9.88328 8.62751 9.20546C8.62751 8.52764 8.89677 7.87758 9.37606 7.39829C9.85535 6.91899 10.5054 6.64973 11.1832 6.64973C11.8611 6.64973 12.5111 6.91899 12.9904 7.39829C13.4697 7.87758 13.739 8.52764 13.739 9.20546Z" stroke="white" stroke-opacity="0.6" stroke-width="1.27786" stroke-linecap="round" stroke-linejoin="round"/>
</svg>
