<svg width="21" height="19" viewBox="0 0 21 19" fill="none" xmlns="http://www.w3.org/2000/svg">
<path d="M6.54503 5.98226L9.02715 7.62484L6.54503 9.26742M10.2682 9.26742H12.7503M5.30397 15.2902H16.4735C16.9672 15.2902 17.4407 15.1171 17.7898 14.8091C18.139 14.5011 18.3351 14.0833 18.3351 13.6476V4.88721C18.3351 4.45157 18.139 4.03377 17.7898 3.72573C17.4407 3.41769 16.9672 3.24463 16.4735 3.24463H5.30397C4.81025 3.24463 4.33675 3.41769 3.98763 3.72573C3.63851 4.03377 3.44238 4.45157 3.44238 4.88721V13.6476C3.44238 14.0833 3.63851 14.5011 3.98763 14.8091C4.33675 15.1171 4.81025 15.2902 5.30397 15.2902Z" stroke="white" stroke-opacity="0.6" stroke-width="1.13155" stroke-linecap="round" stroke-linejoin="round"/>
</svg>
