<svg width="9" height="13" viewBox="0 0 9 13" fill="none" xmlns="http://www.w3.org/2000/svg">
<path fill-rule="evenodd" clip-rule="evenodd" d="M4.90069 0.780762C4.21071 0.780762 3.54899 1.08842 3.0611 1.63605C2.57321 2.18368 2.29912 2.92643 2.29912 3.7009V5.36955C1.90484 5.36955 1.52671 5.54536 1.24792 5.85829C0.969125 6.17122 0.8125 6.59565 0.8125 7.0382V10.7927C0.8125 11.2352 0.969125 11.6596 1.24792 11.9726C1.52671 12.2855 1.90484 12.4613 2.29912 12.4613H7.50227C7.89655 12.4613 8.27467 12.2855 8.55347 11.9726C8.83226 11.6596 8.98889 11.2352 8.98889 10.7927V7.0382C8.98889 6.59565 8.83226 6.17122 8.55347 5.85829C8.27467 5.54536 7.89655 5.36955 7.50227 5.36955V3.7009C7.50227 2.08787 6.33776 0.780762 4.90069 0.780762ZM6.75896 5.36955V3.7009C6.75896 3.14771 6.56318 2.61717 6.21469 2.22601C5.8662 1.83484 5.39354 1.61509 4.90069 1.61509C4.40785 1.61509 3.93519 1.83484 3.5867 2.22601C3.23821 2.61717 3.04242 3.14771 3.04242 3.7009V5.36955H6.75896Z" fill="white" fill-opacity="0.6"/>
</svg>
