<svg width="68" height="67" viewBox="0 0 68 67" fill="none" xmlns="http://www.w3.org/2000/svg">
<g clip-path="url(#clip0_24_817)">
<path d="M23.3945 63.651V38.5273H38.4307V53.5635H54.4185C54.4185 53.5635 59.7477 54.8958 59.7477 61.1767C59.7477 67.4576 54.4185 68.4093 54.4185 68.4093H28.5335C24.5432 68.3405 23.4174 67.2992 23.3945 63.651Z" fill="url(#paint0_linear_24_817)"/>
<rect x="23.3945" y="38.5273" width="15.2265" height="0.380662" fill="white"/>
<path d="M29.3584 43.1706L11.5933 25.4055L21.8711 16.2587L32.3393 25.9656L44.1627 14.1004C44.1627 14.1004 48.8731 11.2742 53.3144 15.7154C57.7557 20.1567 54.6602 24.598 54.6602 24.598L36.3568 42.9015C33.4865 45.6744 31.9542 45.7341 29.3584 43.1706Z" fill="url(#paint1_linear_24_817)"/>
<g filter="url(#filter0_d_24_817)">
<path d="M28.3294 43.4828L8.92871 24.082L19.5609 13.4499L43.4435 35.7175L35.6376 43.5234C32.7629 46.2918 31.1627 46.2837 28.3294 43.4828Z" fill="white"/>
</g>
<circle cx="58.2251" cy="39.0983" r="3.23563" transform="rotate(45 58.2251 39.0983)" fill="url(#paint2_linear_24_817)"/>
<circle cx="31.1937" cy="12.8286" r="4.16931" transform="rotate(-45 31.1937 12.8286)" fill="url(#paint3_linear_24_817)"/>
<circle cx="11.4032" cy="52.4215" r="5.90026" fill="url(#paint4_linear_24_817)"/>
</g>
<defs>
<filter id="filter0_d_24_817" x="-15.8143" y="-15.0997" width="91.6139" height="89.2409" filterUnits="userSpaceOnUse" color-interpolation-filters="sRGB">
<feFlood flood-opacity="0" result="BackgroundImageFix"/>
<feColorMatrix in="SourceAlpha" type="matrix" values="0 0 0 0 0 0 0 0 0 0 0 0 0 0 0 0 0 0 127 0" result="hardAlpha"/>
<feOffset dx="3.80662"/>
<feGaussianBlur stdDeviation="14.2748"/>
<feComposite in2="hardAlpha" operator="out"/>
<feColorMatrix type="matrix" values="0 0 0 0 0 0 0 0 0 0 0 0 0 0 0 0 0 0 0.25 0"/>
<feBlend mode="normal" in2="BackgroundImageFix" result="effect1_dropShadow_24_817"/>
<feBlend mode="normal" in="SourceGraphic" in2="effect1_dropShadow_24_817" result="shape"/>
</filter>
<linearGradient id="paint0_linear_24_817" x1="41.5711" y1="38.5273" x2="41.5711" y2="68.4093" gradientUnits="userSpaceOnUse">
<stop stop-color="white"/>
<stop offset="0.342213" stop-color="white" stop-opacity="0.55"/>
<stop offset="0.702213" stop-color="white" stop-opacity="0.2"/>
<stop offset="1" stop-color="white" stop-opacity="0"/>
</linearGradient>
<linearGradient id="paint1_linear_24_817" x1="35.1943" y1="23.301" x2="45.8528" y2="33.1982" gradientUnits="userSpaceOnUse">
<stop stop-color="white"/>
<stop offset="0.337213" stop-color="white" stop-opacity="0.85423"/>
<stop offset="1" stop-color="white" stop-opacity="0.2"/>
</linearGradient>
<linearGradient id="paint2_linear_24_817" x1="58.2251" y1="35.8627" x2="58.2251" y2="42.3339" gradientUnits="userSpaceOnUse">
<stop stop-color="white"/>
<stop offset="0.392213" stop-color="white" stop-opacity="0.5"/>
<stop offset="1" stop-color="white" stop-opacity="0"/>
</linearGradient>
<linearGradient id="paint3_linear_24_817" x1="31.1937" y1="8.6593" x2="31.1937" y2="16.9979" gradientUnits="userSpaceOnUse">
<stop stop-color="white"/>
<stop offset="0.942213" stop-color="white" stop-opacity="0"/>
</linearGradient>
<linearGradient id="paint4_linear_24_817" x1="11.4032" y1="46.5212" x2="11.4032" y2="58.3218" gradientUnits="userSpaceOnUse">
<stop stop-color="white"/>
<stop offset="0.462213" stop-color="white" stop-opacity="0.35"/>
<stop offset="0.952213" stop-color="white" stop-opacity="0.02"/>
</linearGradient>
<clipPath id="clip0_24_817">
<rect width="66.5792" height="66.5792" fill="white" transform="translate(0.830566 0.0734863)"/>
</clipPath>
</defs>
</svg>
