<svg width="21" height="25" viewBox="0 0 21 25" fill="none" xmlns="http://www.w3.org/2000/svg">
<path d="M19.4722 6.52021L12.4844 0.679932H4.33183C2.00254 0.679932 1.032 3.01604 0.837891 4.1841V20.5369C0.837891 23.3402 3.16718 24.041 4.33183 24.041H15.9783C18.7734 24.041 19.4722 21.7049 19.4722 20.5369V6.52021Z" stroke="#FEFEFE" stroke-width="1.16806"/>
<path d="M10.1549 9.00229C7.23934 9.00229 5.05189 10.7902 4.40763 12.9445H3.16699C3.82766 9.94547 6.70519 7.68823 10.1549 7.68823C13.6046 7.68823 16.4821 9.94548 17.1427 12.9445C16.4821 15.9435 13.6048 18.2007 10.1551 18.2007C6.70541 18.2007 3.82766 15.9435 3.16699 12.9445H4.40763C5.05189 15.0988 7.23957 16.8867 10.1551 16.8867C13.0706 16.8867 15.2581 15.0988 15.9023 12.9445C15.2581 10.7902 13.0704 9.00229 10.1549 9.00229Z" fill="#FEFEFE"/>
<path d="M11.9007 12.9445C11.9007 13.204 11.7623 13.4829 11.4515 13.7166C11.1404 13.9506 10.6841 14.1125 10.1555 14.1125C9.62679 14.1125 9.17053 13.9506 8.85948 13.7166C8.54867 13.4829 8.4102 13.204 8.4102 12.9445C8.4102 12.6849 8.54867 12.4061 8.85948 12.1723C9.17053 11.9383 9.62679 11.7764 10.1555 11.7764C10.6841 11.7764 11.1404 11.9383 11.4515 12.1723C11.7623 12.4061 11.9007 12.6849 11.9007 12.9445Z" stroke="#FEFEFE" stroke-width="1.16806"/>
</svg>
