<svg width="20" height="30" viewBox="0 0 20 30" fill="none" xmlns="http://www.w3.org/2000/svg">
<g clip-path="url(#clip0_24_892)">
<path d="M13.8595 6.60332H2.46199C2.01963 6.60332 1.61304 6.71391 1.24223 6.9351C0.871418 7.15628 0.575422 7.45228 0.354237 7.82309C0.133053 8.19389 0.0224609 8.60048 0.0224609 9.04285V20.4403C0.0224609 20.8827 0.133053 21.2893 0.354237 21.6601C0.575422 22.0309 0.871418 22.3269 1.24223 22.5481C1.61304 22.7693 2.01963 22.8799 2.46199 22.8799H13.8595C14.3019 22.8799 14.7084 22.7693 15.0793 22.5481C15.4501 22.3269 15.7461 22.0309 15.9672 21.6601C16.1884 21.2893 16.299 20.8827 16.299 20.4403V9.04285C16.299 8.60048 16.1884 8.19389 15.9672 7.82309C15.7461 7.45228 15.4501 7.15628 15.0793 6.9351C14.7084 6.71391 14.3019 6.60332 13.8595 6.60332ZM14.6597 20.4403C14.6597 20.6615 14.5816 20.8502 14.4255 21.0063C14.2693 21.1625 14.0807 21.2405 13.8595 21.2405H6.57993V8.24269H13.8595C14.0807 8.24269 14.2693 8.32075 14.4255 8.47688C14.5816 8.63301 14.6597 8.82167 14.6597 9.04285V20.4403ZM4.94056 8.24269V21.2405H2.46199C2.24081 21.2405 2.05215 21.1625 1.89602 21.0063C1.73989 20.8502 1.66183 20.6615 1.66183 20.4403V9.04285C1.66183 8.82167 1.73989 8.63301 1.89602 8.47688C2.05215 8.32075 2.24081 8.24269 2.46199 8.24269H4.94056ZM8.21929 14.4293C8.25832 14.3253 8.31687 14.2342 8.39494 14.1561L10.8735 11.7166C10.9646 11.6255 11.0752 11.5572 11.2053 11.5117C11.3354 11.4661 11.4687 11.4596 11.6054 11.4921C11.742 11.5247 11.8623 11.5832 11.9664 11.6678C12.0705 11.7524 12.1486 11.8597 12.2006 11.9898C12.2657 12.1329 12.2819 12.2858 12.2494 12.4484C12.2169 12.6111 12.1421 12.7509 12.025 12.868L10.1319 14.7416L12.025 16.5956C12.129 16.6997 12.2006 16.8233 12.2396 16.9665C12.2787 17.1096 12.2754 17.2527 12.2299 17.3958C12.1843 17.5389 12.1095 17.6625 12.0054 17.7666C11.9014 17.8707 11.7778 17.9423 11.6346 17.9813C11.4915 18.0203 11.3484 18.0171 11.2053 17.9715C11.0622 17.926 10.9386 17.8512 10.8345 17.7471L8.39494 15.3076C8.27784 15.1905 8.20303 15.0506 8.1705 14.888C8.13797 14.7253 8.15424 14.5725 8.21929 14.4293Z" fill="white" fill-opacity="0.6"/>
</g>
<defs>
<clipPath id="clip0_24_892">
<rect width="19.5163" height="29.2744" fill="white" transform="matrix(1 0 0 -1 0.0219727 29.3789)"/>
</clipPath>
</defs>
</svg>
