<svg width="21" height="25" viewBox="0 0 21 25" fill="none" xmlns="http://www.w3.org/2000/svg">
<path d="M19.898 6.52021L12.9101 0.679932H4.75761C2.42832 0.679932 1.45778 3.01604 1.26367 4.1841V20.5369C1.26367 23.3402 3.59296 24.041 4.75761 24.041H16.4041C19.1992 24.041 19.898 21.7049 19.898 20.5369V6.52021Z" stroke="#F3F3F3" stroke-width="1.16806"/>
<path d="M6.05142 14.1834L10.9926 9.22781C11.5416 8.67718 12.9691 7.9063 14.2867 9.22781C15.6044 10.5493 14.8357 11.9809 14.2867 12.5316L9.34553 17.4872C9.07102 17.7625 8.3573 18.148 7.69847 17.4872C7.03965 16.8265 7.42396 16.1106 7.69847 15.8353L11.8161 11.7056" stroke="#F3F3F3" stroke-width="1.16806" stroke-linecap="round" stroke-linejoin="round"/>
</svg>
