<svg width="16" height="16" viewBox="0 0 16 16" fill="none" xmlns="http://www.w3.org/2000/svg">
<path d="M10.0574 4.35858C10.0574 4.35858 10.7798 4.00269 8.15929 4.00269C7.22077 4.00269 6.30333 4.28099 5.52298 4.8024C4.74264 5.32381 4.13443 6.06492 3.77527 6.93199C3.41612 7.79907 3.32215 8.75317 3.50524 9.67366C3.68834 10.5941 4.14028 11.4397 4.80391 12.1033C5.46754 12.7669 6.31306 13.2189 7.23354 13.402C8.15403 13.5851 9.10813 13.4911 9.97521 13.1319C10.8423 12.7728 11.5834 12.1646 12.1048 11.3842C12.6262 10.6039 12.9045 9.68643 12.9045 8.74791" stroke="white" stroke-opacity="0.6" stroke-width="0.949045" stroke-miterlimit="10" stroke-linecap="round"/>
<path d="M8.15918 1.74854L10.5318 4.12115L8.15918 6.49376" stroke="white" stroke-opacity="0.6" stroke-width="0.949045" stroke-linecap="round" stroke-linejoin="round"/>
</svg>
