<svg width="9" height="15" viewBox="0 0 9 15" fill="none" xmlns="http://www.w3.org/2000/svg">
<path fill-rule="evenodd" clip-rule="evenodd" d="M8.19353 0.809486C7.96545 0.581409 7.59566 0.581408 7.36759 0.809485L0.966956 7.21012C0.738879 7.43819 0.738879 7.80798 0.966956 8.03606L1.51679 8.58589C1.51738 8.58648 1.51834 8.58648 1.51893 8.58589C1.51952 8.5853 1.52048 8.5853 1.52107 8.58589L7.36801 14.4328C7.59609 14.6609 7.96588 14.6609 8.19395 14.4328L8.33189 14.2949C8.55996 14.0668 8.55996 13.697 8.33189 13.469L2.89684 8.03392C2.66877 7.80584 2.66877 7.43605 2.89684 7.20798L8.33146 1.77336C8.55954 1.54528 8.55954 1.1755 8.33146 0.94742L8.19353 0.809486Z" fill="#B5B5B5"/>
</svg>
