<svg width="14" height="19" viewBox="0 0 14 19" fill="none" xmlns="http://www.w3.org/2000/svg">
<path d="M10.0326 7.13897H11.5839C11.9953 7.13897 12.3899 7.30241 12.6808 7.59334C12.9718 7.88427 13.1352 8.27885 13.1352 8.69029V16.1366C13.1352 16.5481 12.9718 16.9427 12.6808 17.2336C12.3899 17.5245 11.9953 17.688 11.5839 17.688H2.27593C1.8645 17.688 1.46991 17.5245 1.17898 17.2336C0.888052 16.9427 0.724609 16.5481 0.724609 16.1366V8.69029C0.724609 8.27885 0.888052 7.88427 1.17898 7.59334C1.46991 7.30241 1.8645 7.13897 2.27593 7.13897H3.82726M10.0326 4.65685L6.9299 1.5542M6.9299 1.5542L3.82726 4.65685M6.9299 1.5542V12.142" stroke="white" stroke-opacity="0.8" stroke-width="1.24106" stroke-linecap="round" stroke-linejoin="round"/>
</svg>
