<svg width="17" height="14" viewBox="0 0 17 14" fill="none" xmlns="http://www.w3.org/2000/svg">
<path d="M1.12842 4.11678H15.3641M1.12842 4.66431H15.3641M3.31852 8.49699H5.50863H7.69873M3.31852 10.1396H5.50863M2.771 12.3297H13.7215C14.1572 12.3297 14.575 12.1566 14.883 11.8486C15.191 11.5405 15.3641 11.1227 15.3641 10.6871V3.02173C15.3641 2.58609 15.191 2.16829 14.883 1.86025C14.575 1.55221 14.1572 1.37915 13.7215 1.37915H2.771C2.33536 1.37915 1.91756 1.55221 1.60952 1.86025C1.30147 2.16829 1.12842 2.58609 1.12842 3.02173V10.6871C1.12842 11.1227 1.30147 11.5405 1.60952 11.8486C1.91756 12.1566 2.33536 12.3297 2.771 12.3297Z" stroke="white" stroke-opacity="0.6" stroke-width="1.46007" stroke-linecap="round" stroke-linejoin="round"/>
</svg>
