<?xml version="1.0" encoding="utf-8"?>
<!-- Generator: Adobe Illustrator 27.3.1, SVG Export Plug-In . SVG Version: 6.00 Build 0)  -->
<svg version="1.1" xmlns="http://www.w3.org/2000/svg" xmlns:xlink="http://www.w3.org/1999/xlink" x="0px" y="0px"
	 viewBox="0 0 1600 900" style="enable-background:new 0 0 1600 900;" xml:space="preserve">
<style type="text/css">
	.st0{display:none;}
	.st1{display:inline;fill:#F1F1F1;}
	.st2{fill:#F1F1F1;}
</style>
<g id="Layer_2" class="st0">
	<rect x="1" y="3" class="st1" width="1598" height="896"/>
</g>
<g id="Layer_1">
	<g>
		<path class="st2" d="M117.12,442.09L39.26,319.02h52.36l48.62,78.88l48.62-78.88h52.36l-79.9,123.08v103.7h-44.2V442.09z"/>
		<path class="st2" d="M368.38,414.55c14.62,13.26,24.82,33.66,24.82,57.8c0,23.8-10.2,44.2-24.82,57.46
			c-12.58,11.56-31.62,20.74-59.5,20.74c-27.88,0-46.92-9.18-59.5-20.74c-14.62-13.26-24.82-33.66-24.82-57.46
			c0-24.14,10.2-44.54,24.82-57.8c12.58-11.56,31.62-20.74,59.5-20.74C336.76,393.82,355.8,403,368.38,414.55z M350.36,472.35
			c0-23.12-17.68-41.82-41.48-41.82s-41.48,18.7-41.48,41.82c0,22.44,17.34,41.48,41.48,41.48S350.36,494.79,350.36,472.35z"/>
		<path class="st2" d="M466.64,398.58v83.3c0,7.82,0.68,18.36,8.84,25.84c5.1,4.42,13.26,7.48,21.08,7.48s15.98-3.06,21.08-7.48
			c8.16-7.48,8.84-18.02,8.84-25.84v-83.3h41.48v90.1c0,13.26-1.7,30.94-18.02,45.22c-13.6,11.9-35.36,16.66-53.38,16.66
			c-18.02,0-39.78-4.76-53.38-16.66c-16.32-14.28-18.02-31.96-18.02-45.22v-90.1H466.64z"/>
		<path class="st2" d="M607.4,398.58h41.48v22.1c6.46-12.58,15.3-18.7,18.36-20.4c6.46-4.08,14.62-6.46,24.48-6.46
			c7.14,0,12.92,1.7,17.68,3.4l-5.44,38.76c-5.44-3.74-10.88-5.44-19.38-5.44c-7.82,0-19.38,1.7-27.54,11.9
			c-7.82,9.86-8.16,22.44-8.16,32.64v70.72H607.4V398.58z"/>
		<path class="st2" d="M780.11,319.02v188.7h70.04v38.08H735.91V319.02H780.11z"/>
		<path class="st2" d="M1019.13,504.65c-4.42,10.88-21.08,45.9-72.42,45.9c-23.8,0-41.82-6.8-56.44-20.74
			c-16.32-15.3-23.12-34.34-23.12-57.46c0-29.24,11.9-47.26,22.44-57.8c17.34-17,37.74-20.74,55.42-20.74
			c29.92,0,47.26,11.9,57.46,24.14c15.64,18.7,17.68,41.82,17.68,57.8v3.4H909.99c0,8.84,2.38,18.36,7.14,24.82
			c4.42,6.12,13.6,13.94,29.58,13.94c15.64,0,27.54-7.48,34.34-19.38L1019.13,504.65z M981.05,452.63
			c-3.4-20.06-19.72-29.58-35.02-29.58s-31.28,9.86-34.68,29.58H981.05z"/>
		<path class="st2" d="M1168.38,398.58h41.48v147.22h-41.48v-19.04c-14.96,21.42-34.68,23.8-45.22,23.8
			c-45.22,0-75.14-35.36-75.14-78.54c0-43.52,29.58-78.2,73.1-78.2c11.22,0,33.32,2.04,47.26,23.8V398.58z M1090.87,472.01
			c0,23.46,17,41.82,40.8,41.82s40.8-18.36,40.8-41.82s-17-41.48-40.8-41.48S1090.87,448.55,1090.87,472.01z"/>
		<path class="st2" d="M1362.18,297.94h41.48v247.86h-41.48v-19.04c-14.96,21.42-34.68,23.8-45.22,23.8
			c-45.22,0-75.14-35.36-75.14-78.54c0-43.52,29.58-78.2,73.1-78.2c11.22,0,33.32,2.04,47.26,23.8V297.94z M1284.66,472.01
			c0,23.46,17,41.82,40.8,41.82s40.8-18.36,40.8-41.82s-17-41.48-40.8-41.48S1284.66,448.55,1284.66,472.01z"/>
		<path class="st2" d="M1523.34,433.59c-9.86-9.18-19.72-9.86-24.14-9.86c-9.86,0-15.98,4.76-15.98,11.9
			c0,3.74,1.7,9.52,13.26,13.26l9.86,3.06c11.56,3.74,28.9,9.52,37.4,21.08c4.42,6.12,7.48,14.96,7.48,24.48
			c0,13.26-4.42,26.52-16.32,37.4c-11.9,10.88-26.18,15.64-44.2,15.64c-30.6,0-47.94-14.62-57.12-24.48l21.76-25.16
			c8.16,9.52,20.4,17,32.64,17c11.56,0,20.4-5.78,20.4-15.98c0-9.18-7.48-12.92-12.92-14.96l-9.52-3.4
			c-10.54-3.74-22.78-8.5-31.62-17.68c-6.8-7.14-11.22-16.32-11.22-28.22c0-14.28,6.8-26.18,15.3-33.32
			c11.56-9.18,26.52-10.54,38.42-10.54c10.88,0,28.22,1.36,46.92,15.64L1523.34,433.59z"/>
	</g>
</g>
</svg>
